<mxfile host="app.diagrams.net" modified="2023-10-03T08:56:32.966Z" agent="Mozilla/5.0 (Windows NT 10.0; Win64; x64) AppleWebKit/537.36 (KHTML, like Gecko) Chrome/117.0.0.0 Safari/537.36 Edg/117.0.2045.47" etag="BJMNcJAwB5uNElP0nqDF" version="22.0.0" type="device">
  <diagram name="Page-1" id="_0SZdUzVNNs1sAKpJUPm">
    <mxGraphModel dx="1299" dy="716" grid="1" gridSize="10" guides="1" tooltips="1" connect="1" arrows="1" fold="1" page="1" pageScale="1" pageWidth="1100" pageHeight="1700" math="0" shadow="0">
      <root>
        <mxCell id="0" />
        <mxCell id="1" parent="0" />
        <mxCell id="Cr_4KRpd88Il0IPUP7Li-19" style="edgeStyle=orthogonalEdgeStyle;rounded=0;orthogonalLoop=1;jettySize=auto;html=1;exitX=0.5;exitY=0;exitDx=0;exitDy=0;entryX=0.5;entryY=0;entryDx=0;entryDy=0;" edge="1" parent="1" source="Cr_4KRpd88Il0IPUP7Li-1" target="Cr_4KRpd88Il0IPUP7Li-2">
          <mxGeometry relative="1" as="geometry" />
        </mxCell>
        <mxCell id="Cr_4KRpd88Il0IPUP7Li-20" style="edgeStyle=orthogonalEdgeStyle;rounded=0;orthogonalLoop=1;jettySize=auto;html=1;exitX=0.5;exitY=0;exitDx=0;exitDy=0;entryX=0.5;entryY=0;entryDx=0;entryDy=0;" edge="1" parent="1" source="Cr_4KRpd88Il0IPUP7Li-1" target="Cr_4KRpd88Il0IPUP7Li-12">
          <mxGeometry relative="1" as="geometry" />
        </mxCell>
        <mxCell id="Cr_4KRpd88Il0IPUP7Li-21" style="edgeStyle=orthogonalEdgeStyle;rounded=0;orthogonalLoop=1;jettySize=auto;html=1;exitX=0.5;exitY=0;exitDx=0;exitDy=0;entryX=0.5;entryY=0;entryDx=0;entryDy=0;" edge="1" parent="1" source="Cr_4KRpd88Il0IPUP7Li-1" target="Cr_4KRpd88Il0IPUP7Li-3">
          <mxGeometry relative="1" as="geometry" />
        </mxCell>
        <mxCell id="Cr_4KRpd88Il0IPUP7Li-22" style="edgeStyle=orthogonalEdgeStyle;rounded=0;orthogonalLoop=1;jettySize=auto;html=1;exitX=0.5;exitY=0;exitDx=0;exitDy=0;entryX=0.5;entryY=0;entryDx=0;entryDy=0;" edge="1" parent="1" source="Cr_4KRpd88Il0IPUP7Li-1" target="Cr_4KRpd88Il0IPUP7Li-4">
          <mxGeometry relative="1" as="geometry" />
        </mxCell>
        <mxCell id="Cr_4KRpd88Il0IPUP7Li-23" style="edgeStyle=orthogonalEdgeStyle;rounded=0;orthogonalLoop=1;jettySize=auto;html=1;exitX=0.5;exitY=0;exitDx=0;exitDy=0;entryX=0.5;entryY=0;entryDx=0;entryDy=0;" edge="1" parent="1" source="Cr_4KRpd88Il0IPUP7Li-1" target="Cr_4KRpd88Il0IPUP7Li-8">
          <mxGeometry relative="1" as="geometry" />
        </mxCell>
        <mxCell id="Cr_4KRpd88Il0IPUP7Li-24" style="edgeStyle=orthogonalEdgeStyle;rounded=0;orthogonalLoop=1;jettySize=auto;html=1;exitX=0.5;exitY=0;exitDx=0;exitDy=0;entryX=0.5;entryY=0;entryDx=0;entryDy=0;" edge="1" parent="1" source="Cr_4KRpd88Il0IPUP7Li-1" target="Cr_4KRpd88Il0IPUP7Li-10">
          <mxGeometry relative="1" as="geometry" />
        </mxCell>
        <mxCell id="Cr_4KRpd88Il0IPUP7Li-60" style="edgeStyle=orthogonalEdgeStyle;rounded=0;orthogonalLoop=1;jettySize=auto;html=1;exitX=0.5;exitY=0;exitDx=0;exitDy=0;entryX=0.5;entryY=0;entryDx=0;entryDy=0;" edge="1" parent="1" source="Cr_4KRpd88Il0IPUP7Li-1" target="Cr_4KRpd88Il0IPUP7Li-59">
          <mxGeometry relative="1" as="geometry" />
        </mxCell>
        <mxCell id="Cr_4KRpd88Il0IPUP7Li-63" style="edgeStyle=orthogonalEdgeStyle;rounded=0;orthogonalLoop=1;jettySize=auto;html=1;exitX=0.5;exitY=0;exitDx=0;exitDy=0;entryX=0.5;entryY=0;entryDx=0;entryDy=0;" edge="1" parent="1" source="Cr_4KRpd88Il0IPUP7Li-1" target="Cr_4KRpd88Il0IPUP7Li-62">
          <mxGeometry relative="1" as="geometry" />
        </mxCell>
        <mxCell id="Cr_4KRpd88Il0IPUP7Li-1" value="Usuaris" style="rounded=0;whiteSpace=wrap;html=1;fillColor=#d5e8d4;strokeColor=#82b366;" vertex="1" parent="1">
          <mxGeometry x="240" y="105" width="70" height="40" as="geometry" />
        </mxCell>
        <mxCell id="Cr_4KRpd88Il0IPUP7Li-2" value="ID" style="ellipse;whiteSpace=wrap;html=1;fillColor=#d5e8d4;strokeColor=#82b366;strokeWidth=4;" vertex="1" parent="1">
          <mxGeometry x="340" y="110" width="70" height="30" as="geometry" />
        </mxCell>
        <mxCell id="Cr_4KRpd88Il0IPUP7Li-3" value="Nom" style="ellipse;whiteSpace=wrap;html=1;fillColor=#d5e8d4;strokeColor=#82b366;" vertex="1" parent="1">
          <mxGeometry x="430" y="110" width="70" height="30" as="geometry" />
        </mxCell>
        <mxCell id="Cr_4KRpd88Il0IPUP7Li-4" value="Correu" style="ellipse;whiteSpace=wrap;html=1;fillColor=#d5e8d4;strokeColor=#82b366;" vertex="1" parent="1">
          <mxGeometry x="520" y="110" width="70" height="30" as="geometry" />
        </mxCell>
        <mxCell id="Cr_4KRpd88Il0IPUP7Li-8" value="Teléfon" style="ellipse;whiteSpace=wrap;html=1;fillColor=#d5e8d4;strokeColor=#82b366;" vertex="1" parent="1">
          <mxGeometry x="610" y="110" width="70" height="30" as="geometry" />
        </mxCell>
        <mxCell id="Cr_4KRpd88Il0IPUP7Li-10" value="Neixement" style="ellipse;whiteSpace=wrap;html=1;fillColor=#d5e8d4;strokeColor=#82b366;" vertex="1" parent="1">
          <mxGeometry x="700" y="110" width="70" height="30" as="geometry" />
        </mxCell>
        <mxCell id="Cr_4KRpd88Il0IPUP7Li-12" value="Rol" style="ellipse;whiteSpace=wrap;html=1;fillColor=#d5e8d4;strokeColor=#82b366;" vertex="1" parent="1">
          <mxGeometry x="790" y="110" width="70" height="30" as="geometry" />
        </mxCell>
        <mxCell id="Cr_4KRpd88Il0IPUP7Li-25" style="edgeStyle=orthogonalEdgeStyle;rounded=0;orthogonalLoop=1;jettySize=auto;html=1;exitX=0.5;exitY=0;exitDx=0;exitDy=0;entryX=0.5;entryY=0;entryDx=0;entryDy=0;" edge="1" parent="1" source="Cr_4KRpd88Il0IPUP7Li-31" target="Cr_4KRpd88Il0IPUP7Li-32">
          <mxGeometry relative="1" as="geometry" />
        </mxCell>
        <mxCell id="Cr_4KRpd88Il0IPUP7Li-27" style="edgeStyle=orthogonalEdgeStyle;rounded=0;orthogonalLoop=1;jettySize=auto;html=1;exitX=0.5;exitY=0;exitDx=0;exitDy=0;entryX=0.5;entryY=0;entryDx=0;entryDy=0;" edge="1" parent="1" source="Cr_4KRpd88Il0IPUP7Li-31" target="Cr_4KRpd88Il0IPUP7Li-33">
          <mxGeometry relative="1" as="geometry" />
        </mxCell>
        <mxCell id="Cr_4KRpd88Il0IPUP7Li-28" style="edgeStyle=orthogonalEdgeStyle;rounded=0;orthogonalLoop=1;jettySize=auto;html=1;exitX=0.5;exitY=0;exitDx=0;exitDy=0;entryX=0.5;entryY=0;entryDx=0;entryDy=0;" edge="1" parent="1" source="Cr_4KRpd88Il0IPUP7Li-31" target="Cr_4KRpd88Il0IPUP7Li-34">
          <mxGeometry relative="1" as="geometry" />
        </mxCell>
        <mxCell id="Cr_4KRpd88Il0IPUP7Li-29" style="edgeStyle=orthogonalEdgeStyle;rounded=0;orthogonalLoop=1;jettySize=auto;html=1;exitX=0.5;exitY=0;exitDx=0;exitDy=0;entryX=0.5;entryY=0;entryDx=0;entryDy=0;" edge="1" parent="1" source="Cr_4KRpd88Il0IPUP7Li-31" target="Cr_4KRpd88Il0IPUP7Li-35">
          <mxGeometry relative="1" as="geometry" />
        </mxCell>
        <mxCell id="Cr_4KRpd88Il0IPUP7Li-44" style="edgeStyle=orthogonalEdgeStyle;rounded=0;orthogonalLoop=1;jettySize=auto;html=1;exitX=0.5;exitY=0;exitDx=0;exitDy=0;entryX=0.5;entryY=0;entryDx=0;entryDy=0;" edge="1" parent="1" source="Cr_4KRpd88Il0IPUP7Li-31" target="Cr_4KRpd88Il0IPUP7Li-43">
          <mxGeometry relative="1" as="geometry" />
        </mxCell>
        <mxCell id="Cr_4KRpd88Il0IPUP7Li-31" value="Grups" style="rounded=0;whiteSpace=wrap;html=1;fillColor=#ffe6cc;strokeColor=#d79b00;" vertex="1" parent="1">
          <mxGeometry x="240" y="249.94" width="70" height="40" as="geometry" />
        </mxCell>
        <mxCell id="Cr_4KRpd88Il0IPUP7Li-32" value="ID" style="ellipse;whiteSpace=wrap;html=1;fillColor=#ffe6cc;strokeColor=#d79b00;strokeWidth=4;" vertex="1" parent="1">
          <mxGeometry x="340" y="254.94" width="70" height="30" as="geometry" />
        </mxCell>
        <mxCell id="Cr_4KRpd88Il0IPUP7Li-33" value="Nom" style="ellipse;whiteSpace=wrap;html=1;fillColor=#ffe6cc;strokeColor=#d79b00;" vertex="1" parent="1">
          <mxGeometry x="430" y="254.94" width="70" height="30" as="geometry" />
        </mxCell>
        <mxCell id="Cr_4KRpd88Il0IPUP7Li-34" value="Propietari" style="ellipse;whiteSpace=wrap;html=1;fillColor=#ffe6cc;strokeColor=#d79b00;" vertex="1" parent="1">
          <mxGeometry x="520" y="254.94" width="70" height="30" as="geometry" />
        </mxCell>
        <mxCell id="Cr_4KRpd88Il0IPUP7Li-35" value="núm. Participants" style="ellipse;whiteSpace=wrap;html=1;fillColor=#ffe6cc;strokeColor=#d79b00;" vertex="1" parent="1">
          <mxGeometry x="600" y="254.94" width="90" height="45.06" as="geometry" />
        </mxCell>
        <mxCell id="Cr_4KRpd88Il0IPUP7Li-39" style="edgeStyle=orthogonalEdgeStyle;rounded=0;orthogonalLoop=1;jettySize=auto;html=1;exitX=0.5;exitY=0;exitDx=0;exitDy=0;entryX=0;entryY=0.5;entryDx=0;entryDy=0;" edge="1" parent="1" source="Cr_4KRpd88Il0IPUP7Li-38" target="Cr_4KRpd88Il0IPUP7Li-1">
          <mxGeometry relative="1" as="geometry" />
        </mxCell>
        <mxCell id="Cr_4KRpd88Il0IPUP7Li-40" style="edgeStyle=orthogonalEdgeStyle;rounded=0;orthogonalLoop=1;jettySize=auto;html=1;exitX=0.5;exitY=1;exitDx=0;exitDy=0;entryX=0;entryY=0.5;entryDx=0;entryDy=0;" edge="1" parent="1" source="Cr_4KRpd88Il0IPUP7Li-38" target="Cr_4KRpd88Il0IPUP7Li-31">
          <mxGeometry relative="1" as="geometry" />
        </mxCell>
        <mxCell id="Cr_4KRpd88Il0IPUP7Li-38" value="N:M" style="rhombus;whiteSpace=wrap;html=1;" vertex="1" parent="1">
          <mxGeometry x="120" y="150" width="80" height="80" as="geometry" />
        </mxCell>
        <mxCell id="Cr_4KRpd88Il0IPUP7Li-41" value="(1,n)" style="text;html=1;strokeColor=none;fillColor=none;align=center;verticalAlign=middle;whiteSpace=wrap;rounded=0;" vertex="1" parent="1">
          <mxGeometry x="170" y="100" width="60" height="30" as="geometry" />
        </mxCell>
        <mxCell id="Cr_4KRpd88Il0IPUP7Li-42" value="(1,m)" style="text;html=1;strokeColor=none;fillColor=none;align=center;verticalAlign=middle;whiteSpace=wrap;rounded=0;" vertex="1" parent="1">
          <mxGeometry x="170" y="245" width="60" height="30" as="geometry" />
        </mxCell>
        <mxCell id="Cr_4KRpd88Il0IPUP7Li-43" value="Data creació" style="ellipse;whiteSpace=wrap;html=1;fillColor=#ffe6cc;strokeColor=#d79b00;" vertex="1" parent="1">
          <mxGeometry x="701" y="263" width="70" height="30" as="geometry" />
        </mxCell>
        <mxCell id="Cr_4KRpd88Il0IPUP7Li-45" style="edgeStyle=orthogonalEdgeStyle;rounded=0;orthogonalLoop=1;jettySize=auto;html=1;exitX=0.5;exitY=0;exitDx=0;exitDy=0;entryX=0.5;entryY=0;entryDx=0;entryDy=0;" edge="1" parent="1" source="Cr_4KRpd88Il0IPUP7Li-50" target="Cr_4KRpd88Il0IPUP7Li-51">
          <mxGeometry relative="1" as="geometry" />
        </mxCell>
        <mxCell id="Cr_4KRpd88Il0IPUP7Li-46" style="edgeStyle=orthogonalEdgeStyle;rounded=0;orthogonalLoop=1;jettySize=auto;html=1;exitX=0.5;exitY=0;exitDx=0;exitDy=0;entryX=0.5;entryY=0;entryDx=0;entryDy=0;" edge="1" parent="1" source="Cr_4KRpd88Il0IPUP7Li-50" target="Cr_4KRpd88Il0IPUP7Li-52">
          <mxGeometry relative="1" as="geometry" />
        </mxCell>
        <mxCell id="Cr_4KRpd88Il0IPUP7Li-47" style="edgeStyle=orthogonalEdgeStyle;rounded=0;orthogonalLoop=1;jettySize=auto;html=1;exitX=0.5;exitY=0;exitDx=0;exitDy=0;entryX=0.5;entryY=0;entryDx=0;entryDy=0;" edge="1" parent="1" source="Cr_4KRpd88Il0IPUP7Li-50" target="Cr_4KRpd88Il0IPUP7Li-53">
          <mxGeometry relative="1" as="geometry" />
        </mxCell>
        <mxCell id="Cr_4KRpd88Il0IPUP7Li-49" style="edgeStyle=orthogonalEdgeStyle;rounded=0;orthogonalLoop=1;jettySize=auto;html=1;exitX=0.5;exitY=0;exitDx=0;exitDy=0;entryX=0.5;entryY=0;entryDx=0;entryDy=0;" edge="1" parent="1" source="Cr_4KRpd88Il0IPUP7Li-50" target="Cr_4KRpd88Il0IPUP7Li-55">
          <mxGeometry relative="1" as="geometry" />
        </mxCell>
        <mxCell id="Cr_4KRpd88Il0IPUP7Li-57" style="edgeStyle=orthogonalEdgeStyle;rounded=0;orthogonalLoop=1;jettySize=auto;html=1;exitX=0.5;exitY=0;exitDx=0;exitDy=0;entryX=0.5;entryY=0;entryDx=0;entryDy=0;" edge="1" parent="1" source="Cr_4KRpd88Il0IPUP7Li-50" target="Cr_4KRpd88Il0IPUP7Li-56">
          <mxGeometry relative="1" as="geometry" />
        </mxCell>
        <mxCell id="Cr_4KRpd88Il0IPUP7Li-61" style="edgeStyle=orthogonalEdgeStyle;rounded=0;orthogonalLoop=1;jettySize=auto;html=1;exitX=0.5;exitY=1;exitDx=0;exitDy=0;entryX=0.5;entryY=1;entryDx=0;entryDy=0;" edge="1" parent="1" source="Cr_4KRpd88Il0IPUP7Li-50" target="Cr_4KRpd88Il0IPUP7Li-59">
          <mxGeometry relative="1" as="geometry" />
        </mxCell>
        <mxCell id="Cr_4KRpd88Il0IPUP7Li-50" value="Notícies" style="rounded=0;whiteSpace=wrap;html=1;fillColor=#dae8fc;strokeColor=#6c8ebf;" vertex="1" parent="1">
          <mxGeometry x="239" y="380.06" width="70" height="40" as="geometry" />
        </mxCell>
        <mxCell id="Cr_4KRpd88Il0IPUP7Li-51" value="ID" style="ellipse;whiteSpace=wrap;html=1;fillColor=#dae8fc;strokeColor=#6c8ebf;strokeWidth=4;" vertex="1" parent="1">
          <mxGeometry x="339" y="385.06" width="70" height="30" as="geometry" />
        </mxCell>
        <mxCell id="Cr_4KRpd88Il0IPUP7Li-52" value="Titol" style="ellipse;whiteSpace=wrap;html=1;fillColor=#dae8fc;strokeColor=#6c8ebf;" vertex="1" parent="1">
          <mxGeometry x="429" y="385.06" width="70" height="30" as="geometry" />
        </mxCell>
        <mxCell id="Cr_4KRpd88Il0IPUP7Li-53" value="Creador" style="ellipse;whiteSpace=wrap;html=1;fillColor=#dae8fc;strokeColor=#6c8ebf;" vertex="1" parent="1">
          <mxGeometry x="519" y="385.06" width="70" height="30" as="geometry" />
        </mxCell>
        <mxCell id="Cr_4KRpd88Il0IPUP7Li-55" value="Data creació" style="ellipse;whiteSpace=wrap;html=1;fillColor=#dae8fc;strokeColor=#6c8ebf;" vertex="1" parent="1">
          <mxGeometry x="701" y="385.06" width="70" height="30" as="geometry" />
        </mxCell>
        <mxCell id="Cr_4KRpd88Il0IPUP7Li-56" value="Tema" style="ellipse;whiteSpace=wrap;html=1;fillColor=#dae8fc;strokeColor=#6c8ebf;" vertex="1" parent="1">
          <mxGeometry x="610" y="385.06" width="70" height="30" as="geometry" />
        </mxCell>
        <mxCell id="Cr_4KRpd88Il0IPUP7Li-59" value="N:M" style="rhombus;whiteSpace=wrap;html=1;" vertex="1" parent="1">
          <mxGeometry x="960" y="230" width="80" height="80" as="geometry" />
        </mxCell>
        <mxCell id="Cr_4KRpd88Il0IPUP7Li-62" value="Curs" style="ellipse;whiteSpace=wrap;html=1;fillColor=#d5e8d4;strokeColor=#82b366;" vertex="1" parent="1">
          <mxGeometry x="880" y="110" width="70" height="30" as="geometry" />
        </mxCell>
        <mxCell id="Cr_4KRpd88Il0IPUP7Li-64" value="(0,m)" style="text;html=1;strokeColor=none;fillColor=none;align=center;verticalAlign=middle;whiteSpace=wrap;rounded=0;" vertex="1" parent="1">
          <mxGeometry x="940" y="410" width="60" height="30" as="geometry" />
        </mxCell>
        <mxCell id="Cr_4KRpd88Il0IPUP7Li-65" value="(1,n)" style="text;html=1;strokeColor=none;fillColor=none;align=center;verticalAlign=middle;whiteSpace=wrap;rounded=0;" vertex="1" parent="1">
          <mxGeometry x="940" y="60" width="60" height="30" as="geometry" />
        </mxCell>
      </root>
    </mxGraphModel>
  </diagram>
</mxfile>
